<?xml version="1.0" standalone="no"?><!DOCTYPE svg PUBLIC "-//W3C//DTD SVG 1.1//EN" "http://www.w3.org/Graphics/SVG/1.1/DTD/svg11.dtd"><svg t="1601964146932" class="icon" viewBox="0 0 1024 1024" version="1.1" xmlns="http://www.w3.org/2000/svg" p-id="16542" xmlns:xlink="http://www.w3.org/1999/xlink" width="200" height="200"><defs><style type="text/css"></style></defs><path d="M967.6 583.8c-13.2-49.6-45-91.2-89.4-116.9 0 0-0.1 0-0.1-0.1h-0.1c-35.2-20.4-75-28.9-114.8-25l-30-152.4h63.4c7.5 0 13.5-6 13.5-13.5s-6-13.5-13.5-13.5h-158c-7.5 0-13.5 6-13.5 13.5s6 13.5 13.5 13.5h67.1c0 0.3 0.1 0.7 0.1 1l9.1 46.5h-353l42.6-119.8c2.5-7-1.2-14.7-8.2-17.2-0.9-0.3-1.9-0.6-2.9-0.7-1.5-0.5-3-0.9-4.7-0.9H221.2c-30 0-54.5 22.8-54.5 50.8 0 28 24.4 50.8 54.5 50.8h78.2c7.5 0 13.5-6 13.5-13.5s-6-13.5-13.5-13.5h-78.2c-15.2 0-27.5-10.7-27.5-23.8s12.3-23.8 27.5-23.8H373l-43.8 123-37.5 99.2c-45.7-12.2-92.6-6.7-132.7 12.6l-1.5 0.6c-0.5 0.2-1 0.5-1.4 0.8-43.5 21.9-78.8 60.1-95.8 109.7-17 49.8-12.4 101.8 8.9 145.7l0.6 1.5c0.2 0.5 0.5 1 0.8 1.4 21.9 43.4 60 78.6 109.6 95.5 20.4 6.9 41.3 10.4 62.2 10.4 29 0 57.9-6.6 84.7-19.8 0.2-0.1 0.3-0.2 0.5-0.3h0.1c45.8-22.7 80.1-61.8 96.6-110.2 16.9-49.7 12.3-101.6-8.9-145.5l-0.6-1.5c-0.2-0.5-0.5-1-0.8-1.4-19.9-39.6-53.4-72.4-96.7-90.7l19-50.3 273 142.5c-19.9 40.3-25.8 87.6-13.4 134.3 13.2 49.6 45 91.2 89.4 116.9 0.1 0 0.2 0.1 0.2 0.1h0.1c29.6 17.1 62.5 25.8 95.8 25.8 16.6 0 33.3-2.2 49.8-6.6 49.6-13.2 91.2-45 116.9-89.4 0.1-0.2 0.2-0.3 0.3-0.5 25.5-44.2 32.3-95.8 19.2-145.3zM242.1 467.9c13.4 0 26.8 1.6 40 4.9l-45 118.9-55.4-112.3c19.5-7.6 39.9-11.5 60.4-11.5z m-84.6 23.5l58.6 118.8-125.4-42.8c13.8-31.9 37-58.3 66.8-76zM82 592.9l125.3 42.7-118.8 58.5c-12.8-32.3-15.1-67.5-6.5-101.2z m94.3 192c-31.8-13.8-58.1-36.9-75.8-66.6L218.9 660l-42.6 124.9z m25.6 8.7L244.7 668l58.7 118.9c-32.5 13-67.7 15.3-101.5 6.7zM327.5 775l-58.3-118.2 124.6 42.5c-13.6 31.7-36.7 57.9-66.3 75.7z m75.1-101.3l-125.1-42.6L396 572.7c12.4 31.3 15.3 66.5 6.6 101z m-18.5-125.3l-118.5 58.4 42.7-125.2c32.5 14.3 58.5 38 75.8 66.8z m553.4 29.5l-127.7 34 66.1-114.4c28.6 19.7 50 47.6 61.6 80.4zM754.8 470.2H755.1c8.9-1.5 17.9-2.2 26.9-2.2 24.3 0 48.3 5.4 70.5 16l-66.1 114.5-34-127.8c0.8-0.2 1.6-0.4 2.4-0.5z m2.9 125.3L647 537.7c19.1-27 46.4-48.4 79.3-60.1l31.4 117.9z m-411.8-215l6.3-16.6h368.2l16.2 82.4c-1.4 0.4-2.9 0.7-4.3 1.1-46.4 12.3-84.3 40.7-109.4 77.6l-277-144.5z m286.6 181.9l114.6 66.2L619 662.7c-6.3-35.1-1-69.9 13.5-100.3zM626 688.7l127.9-34-66.2 114.6c-28.7-19.8-50.1-47.7-61.7-80.6z m155.5 110c-24.2 0-48.2-5.4-70.4-16l66.1-114.3 34 127.6c-10 1.8-19.9 2.7-29.7 2.7z m55.7-9.6L803 660.9l114.8 66.3c-19.7 28.7-47.7 50.2-80.6 61.9z m94.1-85.4l-114.1-65.9L944.4 604c6.2 33.9 1.7 68.5-13.1 99.7z" fill="" p-id="16543"></path></svg>