<?xml version="1.0" standalone="no"?><!DOCTYPE svg PUBLIC "-//W3C//DTD SVG 1.1//EN" "http://www.w3.org/Graphics/SVG/1.1/DTD/svg11.dtd"><svg t="1601964535013" class="icon" viewBox="0 0 1024 1024" version="1.1" xmlns="http://www.w3.org/2000/svg" p-id="25945" xmlns:xlink="http://www.w3.org/1999/xlink" width="200" height="200"><defs><style type="text/css"></style></defs><path d="M868 324H282c-33 0-60 27-60 60v385.3c0 33 27 60 60 60h586c33 0 60-27 60-60V384c0-33-27-60-60-60zM736.8 556c0 13.8-11.2 25-25 25H612v45h99.8c13.8 0 25 11.3 25 25 0 13.8-11.2 25-25 25H612v39.5c0 13.8-11.3 25-25 25s-25-11.2-25-25V676H458.8c-13.8 0-25-11.2-25-25s11.3-25 25-25H562v-45H458.8c-13.8 0-25-11.2-25-25s11.3-25 25-25h88.5c-0.2-0.2-0.4-0.3-0.6-0.5L464.3 458c-10.3-9.1-11.3-25-2.3-35.3 9.1-10.3 25-11.3 35.3-2.3l82.4 72.5c1.3 1.2 2.5 2.4 3.5 3.8l2.7-0.3c1.2-1.9 2.7-3.6 4.5-5.2l82.4-72.5c10.3-9.1 26.2-8.1 35.3 2.3 9.1 10.3 8.1 26.2-2.3 35.3l-82.4 72.5c-0.9 0.8-1.8 1.5-2.8 2.1h91.2c13.8 0.1 25 11.4 25 25.1z" p-id="25946"></path><path d="M269 726H159.7c-7.2 0-25.7-1.7-41-17-11-11-17-25.5-17-41V255.6c0-32 26-58 58-58h619.2c32 0 58 26 58 58v106.7h-52.8V255.6c0-2.9-2.4-5.3-5.3-5.3H159.7c-2.9 0-5.3 2.4-5.3 5.3V668c0 1.8 0.8 3 1.5 3.7 1.5 1.5 3.6 1.5 3.7 1.5H269V726z" p-id="25947"></path></svg>