<?xml version="1.0" standalone="no"?><!DOCTYPE svg PUBLIC "-//W3C//DTD SVG 1.1//EN" "http://www.w3.org/Graphics/SVG/1.1/DTD/svg11.dtd"><svg t="1601964130396" class="icon" viewBox="0 0 1024 1024" version="1.1" xmlns="http://www.w3.org/2000/svg" p-id="15874" xmlns:xlink="http://www.w3.org/1999/xlink" width="200" height="200"><defs><style type="text/css"></style></defs><path d="M352.064 584.128c-33.856-15.744-50.816-38.592-50.816-68.544 0-20.928 7.936-37.952 23.872-51.072 15.872-13.12 36.224-19.712 60.864-19.712 22.656 0 41.28 6.208 56 18.56 14.656 12.352 21.952 28.288 21.952 47.872 0 31.552-17.664 55.808-52.992 72.832v0.704c41.472 14.912 62.208 40.384 62.208 76.352 0 23.616-8.512 42.432-25.6 56.384-17.088 14.016-40.896 20.992-71.424 20.992-25.088 0-45.504-6.912-61.248-20.736-15.808-13.824-23.68-31.744-23.68-53.76 0-36.224 20.288-62.592 60.928-79.04v-0.832h-0.064z m27.904 17.088c-35.072 14.208-52.672 34.496-52.672 60.928 0 13.696 5.12 24.96 15.424 33.728 10.24 8.832 23.68 13.184 40.192 13.184 16 0 29.056-4.352 39.104-13.12 10.048-8.768 15.04-19.648 15.04-32.768 0-27.456-19.072-48.128-57.088-61.952z m47.68-85.888c0-12.672-3.968-22.72-11.904-30.08-7.936-7.296-18.688-10.944-32.32-10.944-12.672 0-23.552 3.84-32.448 11.456-8.896 7.68-13.376 17.408-13.376 29.248 0 23.744 14.848 41.792 44.608 54.144 30.272-12.608 45.44-30.528 45.44-53.824zM769.92 69.76c-0.448-0.256-0.896-0.512-1.28-0.704a508.566 508.566 0 0 0-64.96-31.808 133.59 133.59 0 0 1-4.544-1.792c-10.816-4.288-21.824-8.256-33.024-11.776-0.064-0.064-0.192-0.064-0.256-0.128a493.984 493.984 0 0 0-33.728-9.216c-2.304-0.512-4.672-1.088-7.04-1.6a472.208 472.208 0 0 0-33.344-6.528c-0.384-0.064-0.704-0.128-1.088-0.192-11.456-1.792-23.04-3.072-34.688-4.032a348.517 348.517 0 0 0-8.448-0.64C535.808 0.576 523.968 0 512 0c-13.12 0-26.048 0.64-38.976 1.6-2.432 0.192-4.864 0.32-7.296 0.576-12.416 1.088-24.704 2.688-36.864 4.608-2.112 0.384-4.288 0.768-6.4 1.152-12.416 2.24-24.704 4.736-36.736 7.808-0.192 0-0.384 0.064-0.576 0.064-12.48 3.2-24.704 6.976-36.8 11.072l-5.184 1.728c-11.968 4.224-23.744 8.768-35.328 13.824-0.768 0.384-1.6 0.768-2.432 1.088-24.448 10.816-47.872 23.424-70.08 37.76l-0.576 0.384C93.568 172.864 0 331.456 0 512c0 282.816 229.248 512 512 512s512-229.184 512-511.936c0-188.736-102.144-353.472-254.08-442.304zM401.472 850.752c-147.2 0-266.496-119.296-266.496-266.432s119.296-266.432 266.496-266.432c147.136 0 266.432 119.296 266.432 266.432S548.672 850.752 401.472 850.752z m332.352-523.2c-58.24-50.752-80.704-120.192-50.304-155.2 30.464-34.944 102.336-22.08 160.576 28.672C902.272 251.84 924.8 321.28 894.4 356.16c-30.528 34.944-102.4 22.144-160.576-28.608z m0 0" fill="" p-id="15875"></path></svg>