<?xml version="1.0" standalone="no"?><!DOCTYPE svg PUBLIC "-//W3C//DTD SVG 1.1//EN" "http://www.w3.org/Graphics/SVG/1.1/DTD/svg11.dtd"><svg t="1601964127381" class="icon" viewBox="0 0 1024 1024" version="1.1" xmlns="http://www.w3.org/2000/svg" p-id="15742" xmlns:xlink="http://www.w3.org/1999/xlink" width="200" height="200"><defs><style type="text/css"></style></defs><path d="M778.24 40.96c-67.3792 0-122.88 53.98528-122.88 120.60672 0 24.10496 6.79936 47.3088 13.35296 66.82624 6.5536 19.53792 12.94336 37.5808 13.29152 40.1408 0.02048 0.24576 5.0176 44.66688-7.3728 82.90304v0.12288c-2.31424 6.5536-26.54208 75.24352-40.63232 114.23744a2533.9904 2533.9904 0 0 1-29.2864-64.04096l-17.55136-39.66976c-4.64896-10.5472-6.88128-15.85152-8.72448-19.68128-14.90944-32.9728-15.52384-73.80992-15.52384-73.80992V268.00128c-0.08192-3.35872 3.21536-20.02944 6.84032-38.4 3.62496-18.37056 7.24992-39.97696 4.52608-62.07488-7.45472-60.70272-62.58688-104.67328-122.83904-97.28h-0.04096c-60.25216 7.39328-103.09632 63.3856-95.6416 124.06784 2.70336 21.97504 11.24352 42.27072 19.12832 59.24864 7.86432 16.93696 15.31904 32.5632 15.83104 34.5088l0.04096 0.04096c0.06144 0.26624 9.216 39.75168 2.7648 75.20256v0.04096l-20.93056 95.4368c-32.9728-44.4416-76.9024-103.71072-78.9504-106.496-20.66432-29.98272-28.40576-70.22592-28.40576-70.22592-0.3072-2.02752 0.18432-19.2512 0.49152-37.9904 0.28672-18.80064-0.16384-40.91904-6.73792-62.19776a112.98816 112.98816 0 0 0-95.4368-78.80704 110.14144 110.14144 0 0 0-43.99104 4.096c-58.69568 17.75616-91.72992 80.60928-73.60512 139.38688 6.61504 21.4016 18.90304 39.7312 29.83936 55.11168 10.93632 15.38048 20.86912 29.36832 22.15936 32.48128l0.12288 0.28672 0.12288 0.28672s16.30208 37.74464 16.0768 74.0352l0.04096-0.55296c-0.22528 6.88128-3.072 108.2368-4.44416 132.87424v0.08192l-0.04096 0.08192c-3.7888 77.88544 12.20608 155.2384 43.88864 225.75104 30.3104 68.05504 48.61952 129.26976 51.99872 140.16512l0.32768 1.024 0.4096 0.98304c7.12704 16.75264 25.1904 28.38528 49.82784 31.19104 21.46304 2.4576 49.07008-1.7408 84.19328-14.60224a257.18784 257.18784 0 0 0 162.95936 57.61024c46.34624 0 90.3168-11.8784 128.9216-32.60416 2.94912 2.7648 6.06208 5.30432 9.27744 7.31136 9.8304 6.144 21.4016 10.38336 34.95936 13.96736 27.136 7.14752 62.21824 10.99776 101.4784 10.99776 39.44448 0 74.6496-4.36224 101.6832-11.75552 13.5168-3.6864 24.96512-8.04864 34.6112-13.96736 9.6256-5.91872 19.72224-14.21312 21.2992-29.0816l0.12288-1.08544v-1.06496c0 0.75776 0.67584-8.8064 1.96608-20.35712 1.29024-11.59168 3.15392-26.97216 5.3248-44.56448 4.34176-35.18464 9.95328-79.29856 15.07328-120.60672v-0.08192c10.6496-83.6608 2.17088-169.5744-27.7504-249.6512l-0.04096-0.02048v-0.08192c-9.66656-25.3952-46.10048-129.61792-48.80384-137.23648-12.45184-38.37952-7.3728-83.2512-7.3728-83.2512l0.04096-0.26624v-0.32768c0.4096-4.05504 6.51264-21.79072 13.16864-41.32864 6.656-19.51744 13.7216-42.51648 13.7216-66.7648C901.12 94.96576 845.6192 40.96 778.24 40.96z m0 40.96c45.71136 0 81.92 35.67616 81.92 79.64672 0 15.79008-5.3248 35.328-11.53024 53.5552-6.18496 18.16576-13.4144 33.3824-15.11424 50.36032-0.04096 0.26624-0.88064 9.23648-1.2288 21.23776h-108.3392c-0.3072-13.6192-1.35168-23.552-1.35168-23.552v-0.16384c-2.10944-15.5648-8.99072-29.63456-15.03232-47.63648-6.06208-18.0224-11.24352-37.888-11.24352-53.80096C696.32 117.59616 732.52864 81.92 778.24 81.92zM470.40512 110.63296c32.07168 2.62144 58.9824 27.648 63.20128 61.8496v0.04096c1.72032 14.04928-0.67584 32.09216-4.05504 49.152-3.35872 17.05984-7.9872 31.60064-7.55712 47.49312v0.04096c0 0.34816 0.24576 8.45824 1.2288 19.18976l-88.9856 10.91584c-1.78176-12.34944-3.7888-21.27872-3.7888-21.27872v-0.04096l-0.04096-0.08192c-3.64544-14.17216-11.18208-26.03008-18.41152-41.5744-7.20896-15.5648-13.84448-32.80896-15.60576-46.98112v-0.04096c-4.77184-39.05536 22.07744-73.728 60.0064-78.39744a68.8128 68.8128 0 0 1 14.00832-0.28672zM145.48992 143.60576a71.2704 71.2704 0 0 1 74.38336 50.36032c4.23936 13.70112 5.16096 32.19456 4.89472 49.43872-0.28672 17.22368-2.37568 31.17056 0.1024 45.71136v0.12288s1.8432 9.0112 5.28384 21.0944l-87.51104 26.50112c-3.54304-10.36288-6.67648-18.00192-6.84032-18.35008l-0.04096-0.08192c-6.144-14.7456-16.44544-26.2144-26.60352-40.48896-10.15808-14.27456-19.84512-29.83936-24.04352-43.4176-11.65312-37.7856 8.97024-76.82048 46.32576-88.14592 4.66944-1.41312 9.35936-2.31424 14.04928-2.74432zM721.79712 327.68h112.35328c1.59744 12.26752 4.1984 25.35424 8.45824 38.44096l0.06144 0.24576 0.08192 0.26624 0.73728 2.00704h-131.44064l1.35168-3.8912 0.08192-0.26624 0.12288-0.28672c4.01408-12.36992 6.59456-24.7808 8.192-36.51584z m-191.40608 1.1264c2.6624 9.89184 6.10304 20.2752 10.73152 30.5152l0.12288 0.24576 0.12288 0.22528c-0.3072-0.6144 2.4576 5.57056 3.74784 8.43776l-113.78688 13.96736c0.32768-1.59744 2.29376-10.42432 2.39616-10.91584l0.04096-0.28672 0.08192-0.26624c1.90464-10.4448 2.6624-20.66432 2.90816-30.45376l93.63456-11.4688z m-285.75744 19.94752c4.3008 8.92928 9.25696 18.10432 15.36 26.9312l0.16384 0.22528 0.2048 0.2048 6.71744 9.09312-112.16896 33.95584 0.32768-9.60512v-0.55296a198.67648 198.67648 0 0 0-2.60096-32.39936l91.99616-27.8528z m317.76768 58.65472l4.87424 10.99776c7.12704 16.01536 12.00128 26.2144 18.3296 40.0384a264.17152 264.17152 0 0 0-65.00352-8.192c-38.7072 0-75.6736 8.3968-109.32224 23.18336 4.48512-20.33664 6.4512-29.184 10.71104-48.80384l140.41088-17.22368z m135.04512 2.19136h160.58368c12.16512 34.6112 26.624 76.20608 34.05824 95.72352 27.40224 73.4208 35.28704 152.576 25.43616 230.03136v0.08192c-5.12 41.22624-10.77248 85.38112-15.13472 120.7296-2.17088 17.67424-4.01408 33.11616-5.34528 44.99456-1.024 9.25696-1.4336 14.1312-1.72032 19.456-0.22528 0.2048-0.55296 0.69632-2.3552 1.82272-4.44416 2.72384-12.94336 6.28736-24.00256 9.3184-22.1184 6.0416-54.55872 10.32192-90.89024 10.32192-36.49536 0-69.0176-3.82976-91.0336-9.6256a112.78336 112.78336 0 0 1-17.08032-5.9392v-0.04096l-9.68704-12.5952c-0.4096-3.9936-0.47104-6.656-1.14688-12.71808-1.3312-11.8784-3.19488-27.32032-5.36576-44.99456-4.36224-35.34848-10.01472-79.50336-15.11424-120.7296v-0.04096c-9.8304-77.2096-0.04096-156.61056 25.7024-232.71424 7.41376-19.51744 21.01248-58.69568 33.09568-93.0816z m-404.43904 10.56768a18609.31584 18609.31584 0 0 0 63.34464 85.54496c-64.55296 48.55808-107.76576 124.5184-110.75584 210.37056a257.45408 257.45408 0 0 0 61.89056 177.47968c-20.97152 5.87776-36.61824 7.24992-46.57152 6.12352-14.58176-1.67936-16.9984-7.12704-16.7936-6.61504-3.2768-10.56768-21.85216-72.9088-53.00224-142.78656v-0.04096c-29.184-64.98304-43.78624-135.96672-40.3456-206.88896v-0.08192-0.04096c0.9216-16.73216 1.72032-47.86176 2.70336-80.83456l139.53024-42.22976z m227.59424 71.68c35.34848 0 68.23936 8.15104 97.28 22.528-21.64736 73.80992-29.4912 150.6304-19.8656 226.18112 5.12 41.28768 10.77248 85.42208 15.11424 120.60672 2.17088 17.6128 4.01408 32.9728 5.3248 44.56448l0.47104 4.79232a230.03136 230.03136 0 0 1-115.48672 31.232c-124.7232 0-220.61056-99.40992-216.24832-224.23552 4.34176-124.8256 108.70784-225.6896 233.41056-225.6896zM532.48 532.48a40.96 40.96 0 0 0-40.96 40.96 40.96 40.96 0 0 0 40.96 40.96 40.96 40.96 0 0 0 40.96-40.96 40.96 40.96 0 0 0-40.96-40.96z m-122.88 40.96a40.96 40.96 0 0 0-40.96 40.96 40.96 40.96 0 0 0 40.96 40.96 40.96 40.96 0 0 0 40.96-40.96 40.96 40.96 0 0 0-40.96-40.96z m102.4 81.92a40.96 40.96 0 0 0-40.96 40.96 40.96 40.96 0 0 0 40.96 40.96 40.96 40.96 0 0 0 40.96-40.96 40.96 40.96 0 0 0-40.96-40.96z m383.0784 268.0832c0 0.69632-0.24576 1.9456-0.24576 2.64192l0.12288-2.17088c0.04096-0.32768 0.08192-0.18432 0.12288-0.47104z" fill="" p-id="15743"></path></svg>