<?xml version="1.0" standalone="no"?><!DOCTYPE svg PUBLIC "-//W3C//DTD SVG 1.1//EN" "http://www.w3.org/Graphics/SVG/1.1/DTD/svg11.dtd"><svg t="1601964513213" class="icon" viewBox="0 0 1024 1024" version="1.1" xmlns="http://www.w3.org/2000/svg" p-id="25267" xmlns:xlink="http://www.w3.org/1999/xlink" width="200" height="200"><defs><style type="text/css"></style></defs><path d="M870.116749 958.605617l-716.314339 0c-42.318828 0-76.747965-34.429137-76.747965-76.747965l0-460.487789c0-42.318828 34.429137-76.747965 76.747965-76.747965l716.314339 0c42.318828 0 76.747965 34.429137 76.747965 76.747965l0 460.487789C946.864714 924.17648 912.435577 958.605617 870.116749 958.605617zM153.80241 395.787208c-14.106276 0-25.582655 11.476379-25.582655 25.582655l0 460.487789c0 14.106276 11.476379 25.582655 25.582655 25.582655l716.314339 0c14.106276 0 25.582655-11.476379 25.582655-25.582655l0-460.487789c0-14.106276-11.476379-25.582655-25.582655-25.582655L153.80241 395.787208zM120.564401 511.411599l782.790356 0 0 81.864496-782.790356 0 0-81.864496ZM614.758873 735.50747m-40.932248 0a40 40 0 1 0 81.864496 0 40 40 0 1 0-81.864496 0ZM795.877931 735.50747m-40.932248 0a40 40 0 1 0 81.864496 0 40 40 0 1 0-81.864496 0Z" p-id="25268"></path></svg>