<?xml version="1.0" standalone="no"?><!DOCTYPE svg PUBLIC "-//W3C//DTD SVG 1.1//EN" "http://www.w3.org/Graphics/SVG/1.1/DTD/svg11.dtd"><svg t="1601964527583" class="icon" viewBox="0 0 1024 1024" version="1.1" xmlns="http://www.w3.org/2000/svg" p-id="25669" xmlns:xlink="http://www.w3.org/1999/xlink" width="200" height="200"><defs><style type="text/css"></style></defs><path d="M646.9 308c-8.7-8.7-22.9-8.7-31.6 0L487.7 453.9 342.3 308c-8.7-8.7-22.8-8.7-31.5 0s-8.7 22.9 0 31.6l136.1 136.6H326.1c-12 0-21.8 9.8-21.8 21.8s9.7 21.8 21.8 21.8h130.7v108.9H326.1c-12 0-21.8 9.8-21.8 21.8s9.7 21.8 21.8 21.8h130.7v152.5c0 12 9.8 21.8 21.8 21.8s21.8-9.7 21.8-21.8V672.2H631c12 0 21.8-9.8 21.8-21.8s-9.7-21.8-21.8-21.8H500.3V519.8H631c12 0 21.8-9.7 21.8-21.8 0-12-9.7-21.8-21.8-21.8H527.4l119.5-136.6c8.7-8.7 8.7-22.9 0-31.6z m310.8-151.3c0-52.1-43.9-94.4-98-94.4-25.1 0-48 9.1-65.4 24.1-17.3-15-40.3-24.1-65.4-24.1-54.2 0-98.1 42.3-98.1 94.4 0 1.1 0 2.1 0.1 3.1 0 0.7-0.1 1.3-0.1 2 0 6 1.2 12.5 3.4 19.4 2.3 8.4 5.8 16.3 10.3 23.5C678.9 268 768 345.5 794.2 345.5c26.2 0 115.4-77.5 149.7-140.7 4.5-7.3 8-15.2 10.3-23.5 2.2-6.9 3.4-13.4 3.4-19.4 0-0.7 0-1.3-0.1-2 0.1-1.1 0.2-2.2 0.2-3.2z m-43.9 14c0 45-95.7 131.4-119.7 131.4s-119.7-86.4-119.7-131.4c0-1.5 0.1-2.8 0.4-4.2-0.2-2-0.3-4-0.3-6.1 0-30.2 24.4-54.6 54.5-54.6 24.8 0 45.8 16.6 52.3 39.4 1.4 4.7 5.1 8.3 9.8 9.4h0.1c1.9 0.4 4 0.4 5.9 0 0.1 0 0.2 0 0.3-0.1 4.8-1.1 8.5-4.7 9.8-9.4 6.6-22.7 27.5-39.4 52.3-39.4 30.1 0 54.5 24.4 54.5 54.6 0 2.3-0.2 4.5-0.4 6.7 0.1 1.2 0.2 2.4 0.2 3.7z m-86.1 247.4c13.6 38.6 21.1 80.1 21.1 123.3 0.1 204.6-165.7 370.5-370.3 370.5C274 911.8 108.3 746 108.3 541.5c0-204.5 165.8-370.3 370.3-370.3 13.9 0 27.7 0.8 41.2 2.3 12.9 1.4 24.1-8.7 24.1-21.6 0-11.1-8.3-20.4-19.3-21.6-15.1-1.7-30.5-2.5-46-2.5C249.9 127.7 64.7 313 64.7 541.6c0 228.5 185.3 413.8 413.8 413.8 228.6 0 413.8-185.3 413.8-413.8 0-48.4-8.3-94.9-23.6-138-3.1-8.7-11.3-14.4-20.5-14.4-15-0.1-25.5 14.7-20.5 28.9z" p-id="25670"></path></svg>