<?xml version="1.0" standalone="no"?><!DOCTYPE svg PUBLIC "-//W3C//DTD SVG 1.1//EN" "http://www.w3.org/Graphics/SVG/1.1/DTD/svg11.dtd"><svg t="1601964137755" class="icon" viewBox="0 0 1024 1024" version="1.1" xmlns="http://www.w3.org/2000/svg" p-id="16138" xmlns:xlink="http://www.w3.org/1999/xlink" width="200" height="200"><defs><style type="text/css"></style></defs><path d="M743 269.6H281c-115.2 0-209 93.8-209 209v150.9c0 68.9 56.1 125 125 125 92.3 0 178.4-45.5 230.4-121.8l0.4-0.5 35.2-59.6c0.2-0.3 0.5-0.5 0.9-0.5h90.8c0.3 0 0.7 0.2 0.9 0.5l37.1 61.2 0.7 1c52.1 74.9 137.7 119.6 228.9 119.6h4.9c68.9 0 125-56.1 125-125V478.6c-0.2-115.3-94-209-209.2-209z m169 359.8c0 46.9-38.1 85-85 85h-4.9c-78 0-151.1-38.1-195.7-102l-36.8-60.7c-7.4-12.2-20.8-19.7-35-19.7h-90.8c-14.4 0-28 7.7-35.3 20.1L394 610.7c-44.6 65-118.1 103.8-197 103.8-46.9 0-85-38.1-85-85V478.6c0-93.2 75.8-169 169-169h462c93.2 0 169 75.8 169 169v150.8z" fill="#565656" p-id="16139"></path><path d="M342.2 440.5h-47.7v-47.7c0-17.1-13.9-31-31-31h-1c-17.1 0-31 13.9-31 31v47.7h-47.7c-17.1 0-31 13.9-31 31v1c0 17.1 13.9 31 31 31h47.7v47.7c0 17.1 13.9 31 31 31h1c17.1 0 31-13.9 31-31v-47.7h47.7c17.1 0 31-13.9 31-31v-1c0.1-17.1-13.8-31-31-31z" fill="#565656" p-id="16140"></path><path d="M765 399.4m-33.6 0a33.6 33.6 0 1 0 67.2 0 33.6 33.6 0 1 0-67.2 0Z" fill="#565656" p-id="16141"></path><path d="M765 544.5m-33.6 0a33.6 33.6 0 1 0 67.2 0 33.6 33.6 0 1 0-67.2 0Z" fill="#565656" p-id="16142"></path><path d="M692.4 472m-33.6 0a33.6 33.6 0 1 0 67.2 0 33.6 33.6 0 1 0-67.2 0Z" fill="#565656" p-id="16143"></path><path d="M837.5 472m-33.6 0a33.6 33.6 0 1 0 67.2 0 33.6 33.6 0 1 0-67.2 0Z" fill="#565656" p-id="16144"></path></svg>