<?xml version="1.0" standalone="no"?><!DOCTYPE svg PUBLIC "-//W3C//DTD SVG 1.1//EN" "http://www.w3.org/Graphics/SVG/1.1/DTD/svg11.dtd"><svg t="1601964140678" class="icon" viewBox="0 0 1024 1024" version="1.1" xmlns="http://www.w3.org/2000/svg" p-id="16275" xmlns:xlink="http://www.w3.org/1999/xlink" width="200" height="200"><defs><style type="text/css"></style></defs><path d="M948.7 393.7c-12.3-63.1-48.6-115.6-102.2-147.8L610.1 103.6c-89.9-54.1-128.5-53.9-217.4 1.4L164.5 247.1c-55.7 34.7-88.9 90.3-88.7 148.7l1.9 535.6c0.1 15.4 12.6 27.9 28 27.9h164c15.5 0 28-12.5 28-28s-12.5-28-28-28H133.6l-1.8-507.7c-0.1-39.5 22.6-76.3 62.3-101l228.3-142.1c70.8-44.1 87.2-44.2 158.9-1l236.4 142.3c39 23.5 65.8 61.6 75.5 107.7l-4.4 173c-0.4 15.5 11.8 28.3 27.3 28.7 15.7 0.3 28.3-11.8 28.7-27.3l4.5-176.2c0-2-0.2-4-0.6-6z" fill="" p-id="16276"></path><path d="M836.2 903.3H365.9c-15.5 0-28 12.5-28 28s12.5 28 28 28h470.3c15.5 0 28-12.5 28-28s-12.5-28-28-28zM843.7 620h-44.8v-34.6c0-12.4-10-22.4-22.4-22.4H418.2c-12.4 0-22.4 10-22.4 22.4V620h-37.4c-26.8 0-48.5 21.8-48.5 48.5v197.8c0 12.4 10 22.4 22.4 22.4h537.5c12.4 0 22.4-10 22.4-22.4V668.5c0-26.7-21.7-48.5-48.5-48.5z m-219.4-12.2h122.4v156.8H624.3V607.8z m-56.8 0v156.8H445.1V607.8h122.4zM847.4 844H354.7V668.5c0-2.1 1.7-3.7 3.7-3.7h41.9V787c0 12.4 10 22.4 22.4 22.4h346.2c12.4 0 22.4-10 22.4-22.4V664.8h52.3c2.1 0 3.7 1.7 3.7 3.7V844zM441.5 223.3c-6.7-10.4-20.6-13.3-31-6.5L250 321.3c-10.4 6.7-13.3 20.6-6.5 31 4.3 6.6 11.5 10.2 18.8 10.2 4.2 0 8.4-1.2 12.2-3.6L435 254.3c10.3-6.7 13.3-20.6 6.5-31z" fill="" p-id="16277"></path><path d="M211.1 373.3m-16.8 0a16.8 16.8 0 1 0 33.6 0 16.8 16.8 0 1 0-33.6 0Z" fill="" p-id="16278"></path></svg>