<?xml version="1.0" standalone="no"?><!DOCTYPE svg PUBLIC "-//W3C//DTD SVG 1.1//EN" "http://www.w3.org/Graphics/SVG/1.1/DTD/svg11.dtd"><svg t="1599359389403" class="icon" viewBox="0 0 1024 1024" version="1.1" xmlns="http://www.w3.org/2000/svg" p-id="1269" xmlns:xlink="http://www.w3.org/1999/xlink" width="200" height="200"><defs><style type="text/css"></style></defs><path d="M546.32144555 691.9570011L657.63555555 580.64289223l111.31411002 111.31410887 68.64289109-68.64289109L726.27844779 512l111.31410887-111.31411001-68.64289109-68.64289109L657.63555555 443.35710777l-111.31411-111.31410887-68.6428911 68.64289109L588.99266333 512l-111.31410888 111.31411001z" fill="#2c2c2c" p-id="1270"></path><path d="M280.48801223 834.38857443c9.27212999 11.01975666 22.91332779 17.4277211 37.33124665 17.42772224h631.08740779a48.54518557 48.54518557 0 0 0 48.54518556-48.54518556V220.72888889a48.54518557 48.54518557 0 0 0-48.54518556-48.54518556H317.81925888c-14.41792 0-28.05911666 6.40796445-37.33124665 17.42772224l-242.72592668 291.2711111c-15.00046222 18.01026333-15.00046222 44.1761189 0 62.18638223l242.72592668 291.31965553zM340.58695111 269.27407445H900.3614811v485.4518511H340.58695111l-202.28778666-242.72592555 202.28778666-242.72592555z" fill="#2c2c2c" p-id="1271"></path></svg>