<?xml version="1.0" standalone="no"?><!DOCTYPE svg PUBLIC "-//W3C//DTD SVG 1.1//EN" "http://www.w3.org/Graphics/SVG/1.1/DTD/svg11.dtd"><svg t="1601964153188" class="icon" viewBox="0 0 1057 1024" version="1.1" xmlns="http://www.w3.org/2000/svg" p-id="16806" xmlns:xlink="http://www.w3.org/1999/xlink" width="206.4453125" height="200"><defs><style type="text/css"></style></defs><path d="M1018.13691 716.72c-46.86-10.36-88.84-6.85-124.89 10.47-27.09 13.06-40.48 29.21-51.25 42.18-7.84 9.45-14.03 16.92-26.01 24.26-39.36 24.06-95.98 18.9-131.93 3.93-24.64-10.27-35.59-24.59-47.19-39.74-15.04-19.69-35.64-46.64-81.26-46.64-52.58 0-72.38 20-91.53 39.34-13.05 13.2-26.55 26.83-58.35 41.09-38.26 17.14-71.29 31.82-104.93 25.99-26.32-4.7-38.34-18.76-57.32-43.2-19.34-24.93-43.41-55.93-91.77-61.43-39.6-4.52-96.68 4.77-143.53 74.63l-1.38 2.02c-11.19 14.95-8.27 36.15 6.6 47.5 14.96 11.38 36.32 8.54 47.75-6.41 0.84-1.11 2.06-2.86 3.6-5.17 14.43-21.49 38.26-49.34 79.25-44.89 19 2.17 28.22 13.06 45.65 35.51 19.33 24.91 45.8 58.99 99.21 68.51a156.63 156.63 0 0 0 27.82 2.46c42.55 0 80.25-16.92 116.94-33.38 43.38-19.45 63.89-40.19 78.87-55.31 14.94-15.08 18.94-19.14 43.1-19.14 10.93 0 13.22 1.66 27.13 19.87 14.2 18.58 33.64 44 75.14 61.28 49.23 20.47 129.47 30.52 193.65-8.72 21.66-13.24 33.44-27.46 42.91-38.88 8.84-10.65 14.68-17.7 28.35-24.28 21.93-10.56 49.05-12.35 80.58-5.32 18.44 3.97 36.56-7.52 40.64-25.88 4.1-18.37-7.49-36.57-25.85-40.65z" fill="#666666" p-id="16807"></path><path d="M339.54691 737.94c69.59 8.74 106.07-30.87 132.74-59.83 8.28-8.98 16.12-17.5 23.82-23.46 50.6-32.11 80.84-12.02 137.28 41.12l2.11 1.84c48.97 39.05 91.11 58.64 125.97 58.62 16.97 0 32.22-4.64 45.67-13.95 28.76-19.85 37.47-58.88 20.26-90.79l-12.92-23.96c23.52 13.09 50.54 20.61 79.32 20.61 90.24 0 163.66-73.41 163.66-163.65S984.03691 320.8 893.79691 320.8c-86.09 0-156.71 66.88-163.03 151.38L615.89691 259.06c-9.48-17.56-25.15-30.63-44.1-36.75l-248.02-80.48c-47.13-15.81-98.37 9.54-114.25 56.66-7.7 22.82-6.03 47.26 4.67 68.84 10.7 21.58 29.17 37.7 51.05 45.06l178.54 66.04a91.215 91.215 0 0 1 37.76 26.37L182.47691 565.73c-15.24 8.18-25.23 23.35-26.7 40.56-1.47 17.14 5.73 33.73 19.28 44.33 46.29 36.33 112.43 80.95 164.49 87.32z m554.25-349.01c52.67 0 95.53 42.87 95.53 95.54s-42.86 95.52-95.53 95.52-95.53-42.85-95.53-95.52 42.86-95.54 95.53-95.54z m-322.29 44.82l-11.09-28.14c-16.6-42.16-50.5-75.36-92.99-91.08l-179.49-66.38c-5.58-1.86-10.09-5.81-12.71-11.09-2.62-5.28-3.02-11.24-1.14-16.81 3.88-11.51 16.43-17.72 28.3-13.73l248.41 80.59c2.21 0.73 4.04 2.26 5.15 4.3l211.5 392.39c0.67 1.24 0.59 2.75 0.98 2.42-6.96 4.86-34.62 2.35-89.35-41.03-48.04-45.22-120.3-112.15-220.97-47.1l-1.95 1.35c-12.98 9.74-23.65 21.31-33.96 32.51-25.87 28.12-40.85 42.67-74.23 38.37-24.07-2.93-64.09-23.95-109.67-57.24l333.21-179.33z" fill="#666666" p-id="16808"></path></svg>