<?xml version="1.0" standalone="no"?><!DOCTYPE svg PUBLIC "-//W3C//DTD SVG 1.1//EN" "http://www.w3.org/Graphics/SVG/1.1/DTD/svg11.dtd"><svg t="1601964150429" class="icon" viewBox="0 0 1024 1024" version="1.1" xmlns="http://www.w3.org/2000/svg" p-id="16674" xmlns:xlink="http://www.w3.org/1999/xlink" width="200" height="200"><defs><style type="text/css"></style></defs><path d="M862.72 446.1568l-70.3488-179.6096c-13.2096-34.2016-41.8816-63.488-95.9488-63.488h-99.328s-32.1536-75.1616-48.7424-75.1616h-71.68c-16.4864 0-48.7424 75.1616-48.7424 75.1616h-100.4544c-54.0672 0-82.7392 29.2864-95.9488 63.488l-70.3488 179.6096a97.83296 97.83296 0 0 0-77.2096 97.28v228.4544h79.1552v56.9344c0 89.9072 107.008 88.8832 107.008 0v-56.9344h483.6352v56.9344c0 88.8832 107.008 89.9072 107.008 0v-56.9344h79.1552V543.4368a97.83296 97.83296 0 0 0-77.2096-97.28z m-606.6176 187.392a61.91104 61.91104 0 1 1 60.7232-61.8496 61.21472 61.21472 0 0 1-60.7232 61.8496z m-22.1184-191.5904l52.9408-138.9568c6.656-19.8656 16.5888-34.304 39.7312-34.5088h370.5856c23.1424 0.2048 33.0752 14.6432 39.7312 34.5088l52.9408 138.9568H233.984z m533.8112 191.5904a61.91104 61.91104 0 1 1 60.7232-61.8496 61.29664 61.29664 0 0 1-60.7232 61.8496z" p-id="16675"></path></svg>