<?xml version="1.0" standalone="no"?><!DOCTYPE svg PUBLIC "-//W3C//DTD SVG 1.1//EN" "http://www.w3.org/Graphics/SVG/1.1/DTD/svg11.dtd"><svg t="1601964124064" class="icon" viewBox="0 0 1024 1024" version="1.1" xmlns="http://www.w3.org/2000/svg" p-id="15607" xmlns:xlink="http://www.w3.org/1999/xlink" width="200" height="200"><defs><style type="text/css"></style></defs><path d="M254.88384 483.072a14.41792 14.41792 0 0 1-14.41792-14.42304c0-96.85504 78.79168-175.65696 175.63648-175.65696a14.42304 14.42304 0 1 1 0 28.84608c-80.94208 0-146.79552 65.85856-146.79552 146.81088a14.42816 14.42816 0 0 1-14.42304 14.42304z" p-id="15608"></path><path d="M375.74144 483.072a14.42304 14.42304 0 0 1-14.42304-14.42304c0-74.89536 60.86656-135.84384 135.72096-135.98208l0.14848-0.00512 0.4352-0.00512c48.17408-0.14848 104.42752-22.8096 104.43776-86.14912 0-46.83776-38.0928-84.93568-84.93056-84.93568-46.72 0-84.75136 37.9392-84.91008 84.6336v0.29696c0 21.53984 17.52576 39.05536 39.07584 39.05536 21.53472 0 39.05024-17.52064 39.05024-39.05536 0-20.48 16.6656-37.1456 37.1456-37.1456 20.49024 0 37.15072 16.6656 37.15072 37.1456a14.42304 14.42304 0 1 1-28.83584 0c0-4.57728-3.72736-8.30464-8.30976-8.30464-4.57728 0-8.30464 3.72736-8.30464 8.30464 0 37.44256-30.45376 67.90144-67.8912 67.90144-37.34016 0-67.7376-30.27968-67.92192-67.56352v-0.35328c0.00512-62.72512 51.03616-113.75616 113.75616-113.75616 62.73536 0 113.77152 51.03616 113.77152 113.77152 0 35.60448-13.94688 65.38752-40.33024 86.144-23.78752 18.70848-55.78752 28.68736-92.55936 28.85632l-0.72704 0.01536c-59.07456 0-107.13088 48.06144-107.13088 107.14112a14.41792 14.41792 0 0 1-14.41792 14.4128z" p-id="15609"></path><path d="M500.00896 483.072a14.42304 14.42304 0 0 1-14.42304-14.42304c0-61.2352 49.82272-111.06304 111.05792-111.06816 67.21536-0.01024 121.88672-54.69184 121.88672-121.89184a14.42816 14.42816 0 0 1 28.84608 0c0 83.10272-67.61472 150.72256-150.7328 150.7328-45.33248 0.00512-82.21696 36.8896-82.21696 82.2272a14.42304 14.42304 0 0 1-14.41792 14.42304zM443.4688 855.9616h-0.21504c-88.86272-0.03072-173.62432-35.3792-238.68416-99.54816-64.51712-63.6416-103.68512-149.6064-110.28992-242.05312a14.40768 14.40768 0 0 1 14.3872-15.44704h669.39392a14.42304 14.42304 0 0 1 14.3872 15.44704c-3.41504 47.78496-15.42144 93.75232-35.69664 136.61184a11.75552 11.75552 0 0 1-0.64 1.2032c-0.59904 1.00864-1.1776 2.00192-1.7408 2.96448l-0.4352 0.7424a557.59872 557.59872 0 0 0-17.00352 31.45728 14.49984 14.49984 0 0 1-0.71168 1.29536c-31.24736 50.26304-74.05568 92.2112-123.79648 121.2928-51.46112 30.09536-109.89056 46.01344-168.95488 46.03392z m-318.98112-328.21248c19.44576 169.04192 156.71296 299.32032 318.76608 299.3664h0.20992c107.94496-0.03072 208.0256-57.25696 267.8784-153.10336a584.91392 584.91392 0 0 1 17.67424-32.65536l0.4352-0.74752c0.49152-0.8448 0.99328-1.71008 1.51552-2.58048a352.0512 352.0512 0 0 0 31.26784-110.27968H124.48768z" p-id="15610"></path><path d="M718.7968 703.47264a14.42304 14.42304 0 0 1-1.10592-28.8l170.60352-13.27104a11.7248 11.7248 0 0 1 1.12128-0.04096c27.98592 0 50.75968-22.77376 50.75968-50.75968 0-27.99104-22.77376-50.75968-50.75968-50.75968-32.57856 0-79.0272 35.01568-141.98784 107.0336a14.42304 14.42304 0 1 1-21.72416-18.98496c70.6816-80.8448 121.16992-116.8896 163.712-116.8896 43.89376 0 79.60576 35.70688 79.60576 79.60064 0 43.68896-35.38944 79.27808-79.01696 79.59552l-170.07616 13.23008a10.45504 10.45504 0 0 1-1.13152 0.04608zM432.5632 916.35712c-87.94624 0-170.72128-4.13696-233.06752-11.63264-30.7968-3.70176-55.13728-8.05888-72.33536-12.9536-10.8288-3.08224-36.18816-10.2912-36.18816-29.18912 0-18.31936 24.0384-22.09792 35.58912-23.92064 14.90944-2.33984 36.44416-4.04992 65.8176-5.22752 52.87936-2.11456 125.40416-2.2784 214.7328-2.2784h25.45152c99.4048 0 177.4592 1.22368 231.99232 3.64544 31.04256 1.37728 55.06048 3.17952 71.3728 5.35552 9.30816 1.23392 16.32256 2.61632 21.43744 4.1984 13.88032 4.30592 16.78848 12.28288 16.78848 18.23232 0 18.89792-25.35424 26.10688-36.18304 29.18912-17.19808 4.89472-41.53856 9.25696-72.33536 12.9536-62.34624 7.49056-145.11616 11.62752-233.07264 11.62752z m-291.00032-50.60096c14.69952 3.64544 38.2208 7.95648 75.59168 11.93984 59.35104 6.32832 135.84896 9.81504 215.40864 9.81504 79.5648 0 156.06272-3.48672 215.41376-9.81504 32.81408-3.50208 54.94784-7.24992 69.81632-10.5728-15.16544-1.4336-37.23264-2.90816-69.29408-4.1216-53.02272-2.00192-125.6704-3.01056-215.936-3.01056h-25.45152c-81.1776 0-147.33312 0.12288-198.44608 1.72032-27.66848 0.86528-48.7936 2.10432-64.57856 3.76832-0.86528 0.09728-1.70496 0.1792-2.52416 0.27648z" p-id="15611"></path></svg>